<svg xmlns="http://www.w3.org/2000/svg" width="112" height="156" viewBox="0 0 112 156">
  <defs>
    <linearGradient id="blueGrad" x1="0" y1="0" x2="0" y2="1">
      <stop offset="0%" stop-color="rgb(30,58,138)"/>
      <stop offset="100%" stop-color="rgb(30,64,175)"/>
    </linearGradient>
  </defs>
  <rect x="2" y="2" width="108" height="152" rx="10" ry="10" fill="url(#blueGrad)" stroke="white" stroke-width="2"/>
  <rect x="6" y="6" width="100" height="144" rx="8" ry="8" fill="none" stroke="rgba(240,240,255,1)" stroke-width="2"/>
  <!-- simple tiled pattern -->
  <g opacity="0.35">
<polygon points="14,13 11,16 14,19 17,16" fill="#ffffff"/>
<path d="M14,16 c -1.5,-1.5 -3,0.5 0,3 c 3,-2.52 1.5,-1.5 0,-3 z" fill="#ffffff"/>
<polygon points="32,13 29,16 32,19 35,16" fill="#ffffff"/>
<path d="M32,16 c -1.5,-1.5 -3,0.5 0,3 c 3,-2.52 1.5,-1.5 0,-3 z" fill="#ffffff"/>
<polygon points="50,13 47,16 50,19 53,16" fill="#ffffff"/>
<path d="M50,16 c -1.5,-1.5 -3,0.5 0,3 c 3,-2.52 1.5,-1.5 0,-3 z" fill="#ffffff"/>
<polygon points="68,13 65,16 68,19 71,16" fill="#ffffff"/>
<path d="M68,16 c -1.5,-1.5 -3,0.5 0,3 c 3,-2.52 1.5,-1.5 0,-3 z" fill="#ffffff"/>
<polygon points="86,13 83,16 86,19 89,16" fill="#ffffff"/>
<path d="M86,16 c -1.5,-1.5 -3,0.5 0,3 c 3,-2.52 1.5,-1.5 0,-3 z" fill="#ffffff"/>
<polygon points="14,31 11,34 14,37 17,34" fill="#ffffff"/>
<path d="M14,34 c -1.5,-1.5 -3,0.5 0,3 c 3,-2.52 1.5,-1.5 0,-3 z" fill="#ffffff"/>
<polygon points="32,31 29,34 32,37 35,34" fill="#ffffff"/>
<path d="M32,34 c -1.5,-1.5 -3,0.5 0,3 c 3,-2.52 1.5,-1.5 0,-3 z" fill="#ffffff"/>
<polygon points="50,31 47,34 50,37 53,34" fill="#ffffff"/>
<path d="M50,34 c -1.5,-1.5 -3,0.5 0,3 c 3,-2.52 1.5,-1.5 0,-3 z" fill="#ffffff"/>
<polygon points="68,31 65,34 68,37 71,34" fill="#ffffff"/>
<path d="M68,34 c -1.5,-1.5 -3,0.5 0,3 c 3,-2.52 1.5,-1.5 0,-3 z" fill="#ffffff"/>
<polygon points="86,31 83,34 86,37 89,34" fill="#ffffff"/>
<path d="M86,34 c -1.5,-1.5 -3,0.5 0,3 c 3,-2.52 1.5,-1.5 0,-3 z" fill="#ffffff"/>
<polygon points="14,49 11,52 14,55 17,52" fill="#ffffff"/>
<path d="M14,52 c -1.5,-1.5 -3,0.5 0,3 c 3,-2.52 1.5,-1.5 0,-3 z" fill="#ffffff"/>
<polygon points="32,49 29,52 32,55 35,52" fill="#ffffff"/>
<path d="M32,52 c -1.5,-1.5 -3,0.5 0,3 c 3,-2.52 1.5,-1.5 0,-3 z" fill="#ffffff"/>
<polygon points="50,49 47,52 50,55 53,52" fill="#ffffff"/>
<path d="M50,52 c -1.5,-1.5 -3,0.5 0,3 c 3,-2.52 1.5,-1.5 0,-3 z" fill="#ffffff"/>
<polygon points="68,49 65,52 68,55 71,52" fill="#ffffff"/>
<path d="M68,52 c -1.5,-1.5 -3,0.5 0,3 c 3,-2.52 1.5,-1.5 0,-3 z" fill="#ffffff"/>
<polygon points="86,49 83,52 86,55 89,52" fill="#ffffff"/>
<path d="M86,52 c -1.5,-1.5 -3,0.5 0,3 c 3,-2.52 1.5,-1.5 0,-3 z" fill="#ffffff"/>
<polygon points="14,67 11,70 14,73 17,70" fill="#ffffff"/>
<path d="M14,70 c -1.5,-1.5 -3,0.5 0,3 c 3,-2.52 1.5,-1.5 0,-3 z" fill="#ffffff"/>
<polygon points="32,67 29,70 32,73 35,70" fill="#ffffff"/>
<path d="M32,70 c -1.5,-1.5 -3,0.5 0,3 c 3,-2.52 1.5,-1.5 0,-3 z" fill="#ffffff"/>
<polygon points="50,67 47,70 50,73 53,70" fill="#ffffff"/>
<path d="M50,70 c -1.5,-1.5 -3,0.5 0,3 c 3,-2.52 1.5,-1.5 0,-3 z" fill="#ffffff"/>
<polygon points="68,67 65,70 68,73 71,70" fill="#ffffff"/>
<path d="M68,70 c -1.5,-1.5 -3,0.5 0,3 c 3,-2.52 1.5,-1.5 0,-3 z" fill="#ffffff"/>
<polygon points="86,67 83,70 86,73 89,70" fill="#ffffff"/>
<path d="M86,70 c -1.5,-1.5 -3,0.5 0,3 c 3,-2.52 1.5,-1.5 0,-3 z" fill="#ffffff"/>
<polygon points="14,85 11,88 14,91 17,88" fill="#ffffff"/>
<path d="M14,88 c -1.5,-1.5 -3,0.5 0,3 c 3,-2.52 1.5,-1.5 0,-3 z" fill="#ffffff"/>
<polygon points="32,85 29,88 32,91 35,88" fill="#ffffff"/>
<path d="M32,88 c -1.5,-1.5 -3,0.5 0,3 c 3,-2.52 1.5,-1.5 0,-3 z" fill="#ffffff"/>
<polygon points="50,85 47,88 50,91 53,88" fill="#ffffff"/>
<path d="M50,88 c -1.5,-1.5 -3,0.5 0,3 c 3,-2.52 1.5,-1.5 0,-3 z" fill="#ffffff"/>
<polygon points="68,85 65,88 68,91 71,88" fill="#ffffff"/>
<path d="M68,88 c -1.5,-1.5 -3,0.5 0,3 c 3,-2.52 1.5,-1.5 0,-3 z" fill="#ffffff"/>
<polygon points="86,85 83,88 86,91 89,88" fill="#ffffff"/>
<path d="M86,88 c -1.5,-1.5 -3,0.5 0,3 c 3,-2.52 1.5,-1.5 0,-3 z" fill="#ffffff"/>
<polygon points="14,103 11,106 14,109 17,106" fill="#ffffff"/>
<path d="M14,106 c -1.5,-1.5 -3,0.5 0,3 c 3,-2.52 1.5,-1.5 0,-3 z" fill="#ffffff"/>
<polygon points="32,103 29,106 32,109 35,106" fill="#ffffff"/>
<path d="M32,106 c -1.5,-1.5 -3,0.5 0,3 c 3,-2.52 1.5,-1.5 0,-3 z" fill="#ffffff"/>
<polygon points="50,103 47,106 50,109 53,106" fill="#ffffff"/>
<path d="M50,106 c -1.5,-1.5 -3,0.5 0,3 c 3,-2.52 1.5,-1.5 0,-3 z" fill="#ffffff"/>
<polygon points="68,103 65,106 68,109 71,106" fill="#ffffff"/>
<path d="M68,106 c -1.5,-1.5 -3,0.5 0,3 c 3,-2.52 1.5,-1.5 0,-3 z" fill="#ffffff"/>
<polygon points="86,103 83,106 86,109 89,106" fill="#ffffff"/>
<path d="M86,106 c -1.5,-1.5 -3,0.5 0,3 c 3,-2.52 1.5,-1.5 0,-3 z" fill="#ffffff"/>
<polygon points="14,121 11,124 14,127 17,124" fill="#ffffff"/>
<path d="M14,124 c -1.5,-1.5 -3,0.5 0,3 c 3,-2.52 1.5,-1.5 0,-3 z" fill="#ffffff"/>
<polygon points="32,121 29,124 32,127 35,124" fill="#ffffff"/>
<path d="M32,124 c -1.5,-1.5 -3,0.5 0,3 c 3,-2.52 1.5,-1.5 0,-3 z" fill="#ffffff"/>
<polygon points="50,121 47,124 50,127 53,124" fill="#ffffff"/>
<path d="M50,124 c -1.5,-1.5 -3,0.5 0,3 c 3,-2.52 1.5,-1.5 0,-3 z" fill="#ffffff"/>
<polygon points="68,121 65,124 68,127 71,124" fill="#ffffff"/>
<path d="M68,124 c -1.5,-1.5 -3,0.5 0,3 c 3,-2.52 1.5,-1.5 0,-3 z" fill="#ffffff"/>
<polygon points="86,121 83,124 86,127 89,124" fill="#ffffff"/>
<path d="M86,124 c -1.5,-1.5 -3,0.5 0,3 c 3,-2.52 1.5,-1.5 0,-3 z" fill="#ffffff"/>
</g></svg>