<svg xmlns="http://www.w3.org/2000/svg" width="400" height="80" viewBox="0 0 400 80">
    <g transform="translate(0,0)">
      <circle cx="40" cy="40" r="36" fill="#dc2626" stroke="white" stroke-width="3"/>
      <circle cx="40" cy="40" r="22" fill="none" stroke="white" stroke-width="4"/>
      <!-- edge rectangles -->
      <g fill="white" opacity="0.9">
    <rect x="65.0" y="34.0" width="6" height="12" transform="rotate(0 68.0 40.0)"/>
<rect x="61.2" y="48.0" width="6" height="12" transform="rotate(30 64.2 54.0)"/>
<rect x="51.0" y="58.2" width="6" height="12" transform="rotate(60 54.0 64.2)"/>
<rect x="37.0" y="62.0" width="6" height="12" transform="rotate(90 40.0 68.0)"/>
<rect x="23.0" y="58.2" width="6" height="12" transform="rotate(120 26.0 64.2)"/>
<rect x="12.8" y="48.0" width="6" height="12" transform="rotate(150 15.8 54.0)"/>
<rect x="9.0" y="34.0" width="6" height="12" transform="rotate(180 12.0 40.0)"/>
<rect x="12.8" y="20.0" width="6" height="12" transform="rotate(210 15.8 26.0)"/>
<rect x="23.0" y="9.8" width="6" height="12" transform="rotate(240 26.0 15.8)"/>
<rect x="37.0" y="6.0" width="6" height="12" transform="rotate(270 40.0 12.0)"/>
<rect x="51.0" y="9.8" width="6" height="12" transform="rotate(300 54.0 15.8)"/>
<rect x="61.2" y="20.0" width="6" height="12" transform="rotate(330 64.2 26.0)"/>
</g>
      <text x="40" y="46" font-family="Arial, Helvetica, sans-serif" font-size="20" text-anchor="middle" fill="#fff">5</text>
    </g>
    
    <g transform="translate(80,0)">
      <circle cx="40" cy="40" r="36" fill="#3b82f6" stroke="white" stroke-width="3"/>
      <circle cx="40" cy="40" r="22" fill="none" stroke="white" stroke-width="4"/>
      <!-- edge rectangles -->
      <g fill="white" opacity="0.9">
    <rect x="65.0" y="34.0" width="6" height="12" transform="rotate(0 68.0 40.0)"/>
<rect x="61.2" y="48.0" width="6" height="12" transform="rotate(30 64.2 54.0)"/>
<rect x="51.0" y="58.2" width="6" height="12" transform="rotate(60 54.0 64.2)"/>
<rect x="37.0" y="62.0" width="6" height="12" transform="rotate(90 40.0 68.0)"/>
<rect x="23.0" y="58.2" width="6" height="12" transform="rotate(120 26.0 64.2)"/>
<rect x="12.8" y="48.0" width="6" height="12" transform="rotate(150 15.8 54.0)"/>
<rect x="9.0" y="34.0" width="6" height="12" transform="rotate(180 12.0 40.0)"/>
<rect x="12.8" y="20.0" width="6" height="12" transform="rotate(210 15.8 26.0)"/>
<rect x="23.0" y="9.8" width="6" height="12" transform="rotate(240 26.0 15.8)"/>
<rect x="37.0" y="6.0" width="6" height="12" transform="rotate(270 40.0 12.0)"/>
<rect x="51.0" y="9.8" width="6" height="12" transform="rotate(300 54.0 15.8)"/>
<rect x="61.2" y="20.0" width="6" height="12" transform="rotate(330 64.2 26.0)"/>
</g>
      <text x="40" y="46" font-family="Arial, Helvetica, sans-serif" font-size="20" text-anchor="middle" fill="#fff">10</text>
    </g>
    
    <g transform="translate(160,0)">
      <circle cx="40" cy="40" r="36" fill="#22c55e" stroke="white" stroke-width="3"/>
      <circle cx="40" cy="40" r="22" fill="none" stroke="white" stroke-width="4"/>
      <!-- edge rectangles -->
      <g fill="white" opacity="0.9">
    <rect x="65.0" y="34.0" width="6" height="12" transform="rotate(0 68.0 40.0)"/>
<rect x="61.2" y="48.0" width="6" height="12" transform="rotate(30 64.2 54.0)"/>
<rect x="51.0" y="58.2" width="6" height="12" transform="rotate(60 54.0 64.2)"/>
<rect x="37.0" y="62.0" width="6" height="12" transform="rotate(90 40.0 68.0)"/>
<rect x="23.0" y="58.2" width="6" height="12" transform="rotate(120 26.0 64.2)"/>
<rect x="12.8" y="48.0" width="6" height="12" transform="rotate(150 15.8 54.0)"/>
<rect x="9.0" y="34.0" width="6" height="12" transform="rotate(180 12.0 40.0)"/>
<rect x="12.8" y="20.0" width="6" height="12" transform="rotate(210 15.8 26.0)"/>
<rect x="23.0" y="9.8" width="6" height="12" transform="rotate(240 26.0 15.8)"/>
<rect x="37.0" y="6.0" width="6" height="12" transform="rotate(270 40.0 12.0)"/>
<rect x="51.0" y="9.8" width="6" height="12" transform="rotate(300 54.0 15.8)"/>
<rect x="61.2" y="20.0" width="6" height="12" transform="rotate(330 64.2 26.0)"/>
</g>
      <text x="40" y="46" font-family="Arial, Helvetica, sans-serif" font-size="20" text-anchor="middle" fill="#fff">25</text>
    </g>
    
    <g transform="translate(240,0)">
      <circle cx="40" cy="40" r="36" fill="#171717" stroke="white" stroke-width="3"/>
      <circle cx="40" cy="40" r="22" fill="none" stroke="white" stroke-width="4"/>
      <!-- edge rectangles -->
      <g fill="white" opacity="0.9">
    <rect x="65.0" y="34.0" width="6" height="12" transform="rotate(0 68.0 40.0)"/>
<rect x="61.2" y="48.0" width="6" height="12" transform="rotate(30 64.2 54.0)"/>
<rect x="51.0" y="58.2" width="6" height="12" transform="rotate(60 54.0 64.2)"/>
<rect x="37.0" y="62.0" width="6" height="12" transform="rotate(90 40.0 68.0)"/>
<rect x="23.0" y="58.2" width="6" height="12" transform="rotate(120 26.0 64.2)"/>
<rect x="12.8" y="48.0" width="6" height="12" transform="rotate(150 15.8 54.0)"/>
<rect x="9.0" y="34.0" width="6" height="12" transform="rotate(180 12.0 40.0)"/>
<rect x="12.8" y="20.0" width="6" height="12" transform="rotate(210 15.8 26.0)"/>
<rect x="23.0" y="9.8" width="6" height="12" transform="rotate(240 26.0 15.8)"/>
<rect x="37.0" y="6.0" width="6" height="12" transform="rotate(270 40.0 12.0)"/>
<rect x="51.0" y="9.8" width="6" height="12" transform="rotate(300 54.0 15.8)"/>
<rect x="61.2" y="20.0" width="6" height="12" transform="rotate(330 64.2 26.0)"/>
</g>
      <text x="40" y="46" font-family="Arial, Helvetica, sans-serif" font-size="20" text-anchor="middle" fill="#fff">100</text>
    </g>
    
    <g transform="translate(320,0)">
      <circle cx="40" cy="40" r="36" fill="#9333ea" stroke="white" stroke-width="3"/>
      <circle cx="40" cy="40" r="22" fill="none" stroke="white" stroke-width="4"/>
      <!-- edge rectangles -->
      <g fill="white" opacity="0.9">
    <rect x="65.0" y="34.0" width="6" height="12" transform="rotate(0 68.0 40.0)"/>
<rect x="61.2" y="48.0" width="6" height="12" transform="rotate(30 64.2 54.0)"/>
<rect x="51.0" y="58.2" width="6" height="12" transform="rotate(60 54.0 64.2)"/>
<rect x="37.0" y="62.0" width="6" height="12" transform="rotate(90 40.0 68.0)"/>
<rect x="23.0" y="58.2" width="6" height="12" transform="rotate(120 26.0 64.2)"/>
<rect x="12.8" y="48.0" width="6" height="12" transform="rotate(150 15.8 54.0)"/>
<rect x="9.0" y="34.0" width="6" height="12" transform="rotate(180 12.0 40.0)"/>
<rect x="12.8" y="20.0" width="6" height="12" transform="rotate(210 15.8 26.0)"/>
<rect x="23.0" y="9.8" width="6" height="12" transform="rotate(240 26.0 15.8)"/>
<rect x="37.0" y="6.0" width="6" height="12" transform="rotate(270 40.0 12.0)"/>
<rect x="51.0" y="9.8" width="6" height="12" transform="rotate(300 54.0 15.8)"/>
<rect x="61.2" y="20.0" width="6" height="12" transform="rotate(330 64.2 26.0)"/>
</g>
      <text x="40" y="46" font-family="Arial, Helvetica, sans-serif" font-size="20" text-anchor="middle" fill="#fff">500</text>
    </g>
    </svg>